  <svg version="1.1" id="Layer_1" xmlns="http://www.w3.org/2000/svg" xmlns:xlink="http://www.w3.org/1999/xlink" x="0px" y="0px" viewBox="0 0 512 512" enable-background="new 0 0 512 512" xml:space="preserve">
    <linearGradient id="SVGID_1_" gradientUnits="userSpaceOnUse" x1="51.9689" y1="51.9688" x2="459.0314" y2="459.0313">
      <stop  offset="0" style="stop-color:#FF4AC8"/>
      <stop  offset="1" style="stop-color:#DE0000"/>
    </linearGradient>
    <path fill="url(#SVGID_1_)" d="M178,203.2h22.3v29.1c0,29.1-13.9,43.6-40.1,43.6c-27,0-40.9-15.7-40.9-44.1v-89.7
      c0-29.1,13.9-43.5,40.1-43.5c26.5,0,40.9,14.4,40.9,43.3v20.7H178v-20.7c0-13.6-6-21.2-17.8-21.2c-11.5,0-17.6,7.3-17.6,21v92.1
      c0,13.4,5.2,20.5,17.6,20.5c11.8,0,17.8-6.6,17.8-20.5V203.2z M273.5,151.5v-10c0-12.9-5.5-21-18.6-21c-12.6,0-18.4,7.9-18.4,18.1
      v6.8c0,7.6,2.1,12.1,10.2,18.6c11.8,9.2,29.6,18.6,39.4,27.3c8.1,7.1,12.6,15.5,12.6,31.5v10.8c0,27.3-12.9,42.2-43.3,42.2
      c-30.4,0-43-15.2-43-43.8v-10h22.3v10.2c0,14.2,6,21.8,20.2,21.8c12.3,0,19.2-6,19.2-19.9v-7.9c0-10.8-2.6-15.2-11.3-22
      c-12.1-10-25.4-16.5-36.2-27c-8.7-8.9-13.4-18.1-13.4-32v-7.6c0-23.1,12.6-39.1,41.5-39.1c31.7,0,40.9,19.2,40.9,45.4v7.6H273.5z
      M330.4,274.3l-29.6-174.2h23.3l22,137.5h1.1L369,100.1h22.8l-29.4,174.2H330.4z M148.7,368.3v-3.8c0-4.8-2.6-7.3-8.7-7.3
      c-5.9,0-9,2.3-9,6.4v2c0,2.7,0.8,4.1,4.8,6.5c6.1,3.8,12.2,5.6,17.6,9.1c4.5,3,7.1,6.4,7.1,13.1v3c0,11.4-6.3,17-20.1,17
      c-14.8,0-21.1-6.3-21.1-17.8v-3.9h11.2v4.4c0,5.2,2.6,7.8,9.4,7.8c6.4,0,9.1-2.3,9.1-7.2v-2.6c0-2.7-0.8-4.9-5.7-7.6
      c-0.8-0.4-13.5-6.9-17.4-9.9c-4.4-3.3-5.9-7.1-5.9-11.6v-3.3c0-9,7.1-15.1,19.7-15.1c13.5,0,20.1,6.8,20.1,17.7v3.3H148.7z
      M171.1,340.1v-14.7h11.7v14.7H171.1z M171.1,413.5v-65.3h11.7v65.3H171.1z M252,413.5v-46.6c0-6.4-2.9-9.3-8-9.3
      c-5.3,0-7.5,2.7-9.4,9.5v46.3h-11.3v-46.6c0-6.4-2.9-9.3-8-9.3c-5.3,0-7.5,2.7-9.4,9.5v46.3h-11.7v-65.3H205l0.4,9.4h0.5
      c2.7-7.1,7.1-10.2,13.6-10.2c6.9,0,12.3,3.8,14,11c3.7-8.6,8.8-11,15-11c9,0,15.2,6.1,15.2,17.4v48.7H252z M469,72V62h-20V42h-10v20
      H71.9V42h-10v20H42v10h20v230.4H42v10h20V439H42v10h20v20h10v-20h367.1v20h10v-20h20v-10h-20V312.4h20v-10h-20V72H469z M439.1,439
      H286.7v-33.7h0.5c2.6,6.3,7.2,9,13.7,9c9.7,0,15.5-6.1,15.5-17.4v-32.1c0-11.3-5.9-17.4-15.7-17.4c-7.1,0-11.4,3.1-14.3,10.2H286
      l-0.4-9.4h-10.5V439H71.9V312.4h255.9v101.1h11.7V312.4h99.5V439z M286.4,394.4v-27.2c1.9-6.8,4.2-9.5,9.7-9.5c5.6,0,8.6,3,8.6,9.8
      v26.7c0,6.8-3,9.8-8.6,9.8C290.7,404,288.3,401.2,286.4,394.4z M439.1,302.4H71.9V72h367.1V302.4z M391.8,393.9
      c0,13.6-6.7,20.4-20.7,20.4c-13.7,0-20.3-6.5-20.3-20.4v-26.1c0-13.7,6.5-20.4,20.4-20.4s20.6,6.7,20.6,20.4V384h-29.5v10.2
      c0,6.5,3,9.8,8.8,9.8c6.1,0,9.1-3.3,9.1-9.8v-3.3h11.6V393.9z M380.2,367.5c0-6.5-2.9-9.8-9-9.8c-6,0-9,3.3-9,9.8v7.8h18V367.5z"/>
  </svg>
